<?xml version="1.0" encoding="iso-8859-1"?>
<!-- Uploaded to: SVG Repo, www.svgrepo.com, Generator: SVG Repo Mixer Tools -->
<!DOCTYPE svg PUBLIC "-//W3C//DTD SVG 1.1//EN" "http://www.w3.org/Graphics/SVG/1.1/DTD/svg11.dtd">
<svg fill="#000000" height="800px" width="800px" version="1.1" id="Capa_1" xmlns="http://www.w3.org/2000/svg" xmlns:xlink="http://www.w3.org/1999/xlink" 
	 viewBox="0 0 297 297" xml:space="preserve">
<g>
	<path d="M198.513,155.404c-15.102,20.271-31.847,35.883-33.548,37.381c-4.553,4.01-10.4,6.217-16.466,6.217
		s-11.913-2.207-16.466-6.217c-1.701-1.498-18.446-17.109-33.548-37.381H40.752c-4.451,0-8.362,2.951-9.584,7.23L0.382,270.531
		c-0.857,3.006-0.255,6.24,1.628,8.736c1.883,2.496,4.828,3.963,7.955,3.963h277.068c3.127,0,6.072-1.467,7.955-3.963
		c1.884-2.496,2.486-5.73,1.629-8.736L265.83,162.635c-1.222-4.279-5.133-7.23-9.583-7.23H198.513z M71.918,233.18
		c-1.485,1.484-3.539,2.332-5.642,2.332c-2.093,0-4.146-0.848-5.631-2.332c-1.485-1.484-2.342-3.539-2.342-5.641
		c0-2.104,0.856-4.156,2.342-5.641c1.485-1.484,3.538-2.332,5.631-2.332c2.103,0,4.156,0.848,5.642,2.332
		c1.483,1.484,2.332,3.547,2.332,5.641C74.251,229.633,73.402,231.695,71.918,233.18z M88.322,223.742
		c-0.867,0.299-1.755,0.449-2.622,0.449c-3.298-0.01-6.387-2.074-7.523-5.363c-1.445-4.164,0.747-8.709,4.914-10.145
		c4.155-1.445,8.699,0.748,10.145,4.914C94.68,217.752,92.478,222.297,88.322,223.742z M107.935,220.951c-0.11,0-0.229,0-0.349-0.01
		c-4.396-0.189-7.814-3.916-7.614-8.311c0.189-4.396,3.906-7.805,8.312-7.615c4.395,0.19,7.803,3.906,7.614,8.313
		C115.709,217.613,112.18,220.951,107.935,220.951z M137.354,220.623c-1.226,3.158-4.235,5.102-7.435,5.102
		c-0.957,0-1.933-0.178-2.87-0.537c-4.116-1.594-6.158-6.209-4.564-10.314c1.584-4.107,6.199-6.148,10.315-4.564
		C136.907,211.902,138.949,216.516,137.354,220.623z M156.539,232.652c-1.524,2.402-4.105,3.707-6.747,3.707
		c-1.454,0-2.93-0.398-4.256-1.236c-3.727-2.361-4.823-7.285-2.471-11.002c2.362-3.727,7.285-4.824,11.003-2.473
		C157.785,224.012,158.891,228.934,156.539,232.652z M178.584,237.773c-0.618,3.928-4.016,6.729-7.863,6.729
		c-0.418,0-0.837-0.041-1.266-0.109c-4.345-0.69-7.305-4.774-6.617-9.119c0.698-4.355,4.783-7.316,9.129-6.629
		C176.312,229.344,179.282,233.43,178.584,237.773z M195.208,242.816c-0.708,0.201-1.415,0.289-2.113,0.289
		c-3.508,0-6.717-2.32-7.684-5.859c-1.177-4.246,1.325-8.631,5.571-9.797h-0.01c4.245-1.176,8.64,1.316,9.806,5.563
		C201.954,237.256,199.453,241.652,195.208,242.816z M217.88,232.342c-1.347,0.879-2.86,1.297-4.355,1.297
		c-2.602,0-5.152-1.266-6.678-3.607c-2.411-3.688-1.385-8.631,2.302-11.033h0.011c3.677-2.412,8.62-1.385,11.032,2.303
		C222.603,224.988,221.567,229.93,217.88,232.342z M236.357,216.736c-1.485,1.484-3.539,2.332-5.641,2.332
		c-2.094,0-4.146-0.848-5.632-2.332c-1.484-1.494-2.341-3.549-2.341-5.641c0-2.094,0.857-4.156,2.341-5.641
		c1.476-1.477,3.538-2.332,5.632-2.332c2.102,0,4.155,0.855,5.641,2.332c1.484,1.484,2.332,3.547,2.332,5.641
		C238.689,213.188,237.841,215.242,236.357,216.736z"/>
	<path d="M142.572,180.818c1.694,1.492,3.811,2.238,5.928,2.238s4.233-0.746,5.928-2.238c2.371-2.088,58.054-51.717,58.054-103.045
		c0-35.293-28.701-64.004-63.981-64.004S84.518,42.481,84.518,77.773C84.518,129.102,140.201,178.731,142.572,180.818z
		 M124.677,77.773c0-13.213,10.687-23.961,23.822-23.961s23.822,10.748,23.822,23.961s-10.687,23.961-23.822,23.961
		S124.677,90.986,124.677,77.773z"/>
</g>
</svg>