<svg width="300" height="120" viewBox="0 0 300 120" fill="none" xmlns="http://www.w3.org/2000/svg">
  <defs>
    <filter id="filter0_d" x="0" y="0" width="100" height="100" filterUnits="userSpaceOnUse" color-interpolation-filters="sRGB">
      <feFlood flood-opacity="0" result="BackgroundImageFix"/>
      <feColorMatrix in="SourceAlpha" type="matrix" values="0 0 0 0 0 0 0 0 0 0 0 0 0 0 0 0 0 0 127 0" result="hardAlpha"/>
      <feOffset dy="4"/>
      <feGaussianBlur stdDeviation="10"/>
      <feComposite in2="hardAlpha" operator="out"/>
      <feColorMatrix type="matrix" values="0 0 0 0 0 0 0 0 0 0 0 0 0 0 0 0 0 0 0.1 0"/>
      <feBlend mode="normal" in2="BackgroundImageFix" result="effect1_dropShadow"/>
      <feBlend mode="normal" in="SourceGraphic" in2="effect1_dropShadow" result="shape"/>
    </filter>
  </defs>

  <rect x="20" y="15" width="80" height="80" rx="20" fill="#0F1D34" filter="url(#filter0_d)"/>
  
  <path d="M43 42C43 40.8954 43.8954 40 45 40H75C76.1046 40 77 40.8954 77 42V78H43V42Z" stroke="#D4AF37" stroke-width="3"/>
  <path d="M54 78V72C54 69.7909 55.7909 68 58 68H62C64.2091 68 66 69.7909 66 72V78" stroke="#D4AF37" stroke-width="3"/>
  <circle cx="50" cy="48" r="1.5" fill="#D4AF37"/>
  <circle cx="60" cy="48" r="1.5" fill="#D4AF37"/>
  <circle cx="70" cy="48" r="1.5" fill="#D4AF37"/>
  <circle cx="50" cy="56" r="1.5" fill="#D4AF37"/>
  <circle cx="60" cy="56" r="1.5" fill="#D4AF37"/>
  <circle cx="70" cy="56" r="1.5" fill="#D4AF37"/>

  <text x="115" y="65" font-family="Serif, 'Times New Roman'" font-size="44" fill="#0F1D34" font-weight="400">Higlton</text>
  
  <text x="115" y="85" font-family="Arial, sans-serif" font-size="12" fill="#D4AF37" letter-spacing="3">LUXURY HOTELS</text>
</svg>
