<?xml version="1.0" encoding="iso-8859-1"?>
<!-- Uploaded to: SVG Repo, www.svgrepo.com, Generator: SVG Repo Mixer Tools -->
<svg fill="#000000" height="800px" width="800px" version="1.1" id="Layer_1" xmlns="http://www.w3.org/2000/svg" xmlns:xlink="http://www.w3.org/1999/xlink" 
	 viewBox="0 0 512 512" xml:space="preserve">
<g>
	<g>
		<path d="M433.433,295.14h35.713L314.948,17.582l-77.127,138.829c0.135-0.478,0.289-0.954,0.464-1.425
			c4.221-11.423,5.924-23.441,5.924-35.729c0-50.609-43.471-94.095-94.914-94.095c-57.195,0-97.908,45.201-97.908,96.413
			c0,11.359,1.962,22.49,5.832,33.084c2.836,7.764,0.759,16.368-5.17,21.411C17.939,205.09,0,247.402,0,292.192
			c0,48.374,33.173,127.871,128.526,143.111v59.115h38.57v-57.855h128.566v57.855h38.57v-57.855H512L433.433,295.14z
			 M163.572,354.341l-40.695-40.694L95.604,340.92l32.921,32.922v22.382c-49.839-9.13-88.766-52.933-89.966-104.92
			c-0.764-33.107,13.263-64.4,38.481-85.855C95.2,190,101.791,164.271,93.446,141.426c-2.315-6.34-3.489-13.017-3.489-19.849
			c0-30.856,24.856-57.848,58.756-57.848c30.676,0,56.214,25.783,56.937,56.439c0.175,7.396-1.018,14.614-3.545,21.454
			c-7.481,20.252-2.89,42.977,11.297,58.745l-52.653,94.775h35.712L163.572,354.341z M183.444,397.993L262.01,256.57h-35.712
			l88.649-159.568l88.648,159.568h-35.711l78.567,141.423H183.444z"/>
	</g>
</g>
</svg>